<svg id="Capa_1" enable-background="new 0 0 507 507" height="512" viewBox="0 0 507 507" width="512" xmlns="http://www.w3.org/2000/svg"><g id="XMLID_20_"><path id="XMLID_40_" d="m402.516 147.327c7.846 0 15.363-6.899 15-15-.364-8.127-6.591-15-15-15-7.846 0-15.363 6.899-15 15 .364 8.127 6.591 15 15 15z"/><path id="XMLID_45_" d="m402.516 217.001c7.846 0 15.363-6.899 15-15-.364-8.127-6.591-15-15-15-7.846 0-15.363 6.899-15 15 .364 8.127 6.591 15 15 15z"/><path id="XMLID_46_" d="m366.649 181.993c7.846 0 15.363-6.899 15-15-.364-8.127-6.591-15-15-15-7.846 0-15.363 6.899-15 15 .364 8.127 6.591 15 15 15z"/><path id="XMLID_47_" d="m438.383 181.993c7.846 0 15.363-6.899 15-15-.364-8.127-6.591-15-15-15-7.846 0-15.363 6.899-15 15 .364 8.127 6.59 15 15 15z"/><path id="XMLID_48_" d="m229.789 119.043h46.937v30h-46.937z"/><path id="XMLID_49_" d="m85.946 201.671h30v-23.282h23.282v-30h-23.282v-23.282h-30v23.282h-23.282v30h23.282z"/><path id="XMLID_52_" d="m506.515 163.389c0-55.662-45.284-100.946-100.946-100.946h-304.623c-55.662 0-100.946 45.284-100.946 100.946v206.331c0 41.266 33.572 74.837 74.837 74.837 28.349 0 54.728-16.449 67.202-41.906l57.125-116.573c23.192-4.444 40.971-24.312 42.186-48.483h23.813c1.224 24.356 19.267 44.339 42.719 48.579l57.078 116.479c12.476 25.457 38.854 41.905 67.203 41.905 41.266 0 74.837-33.572 74.837-74.837v-206.332zm-30 0c0 39.119-31.826 70.945-70.946 70.945-13.47 0-26.355-3.709-37.606-10.772-3.58-15.976-14.517-29.195-29.061-35.907-2.825-7.742-4.279-15.875-4.279-24.266 0-39.12 31.826-70.946 70.945-70.946 39.12 0 70.947 31.826 70.947 70.946zm-203.628 44.205h-39.261c-7.429-11.98-19.574-20.743-33.828-23.658 1.386-6.704 2.093-13.566 2.093-20.548 0-27.63-11.162-52.699-29.209-70.946h161.15c-18.047 18.246-29.209 43.316-29.209 70.946 0 6.982.706 13.844 2.093 20.548-14.255 2.916-26.4 11.679-33.829 23.658zm-171.941-115.151c39.12 0 70.945 31.826 70.945 70.946 0 8.391-1.453 16.524-4.278 24.266-14.545 6.712-25.482 19.932-29.062 35.909-11.251 7.063-24.138 10.77-37.605 10.77-39.12 0-70.946-31.826-70.946-70.945 0-39.12 31.826-70.946 70.946-70.946zm14.154 297.007c-7.474 15.252-23.278 25.107-40.263 25.107-24.723 0-44.837-20.114-44.837-44.838v-134.594c18.246 18.047 43.316 29.209 70.946 29.209 14.226 0 27.994-2.928 40.702-8.544 5.124 11.682 14.413 21.13 25.982 26.463zm74.25-132.432c-12.168 0-22.068-9.899-22.068-22.068s9.899-22.068 22.068-22.068 22.068 9.899 22.068 22.068-9.9 22.068-22.068 22.068zm105.747-22.068c0-12.168 9.899-22.068 22.068-22.068 12.168 0 22.067 9.899 22.067 22.068s-9.899 22.068-22.067 22.068c-12.169 0-22.068-9.899-22.068-22.068zm137.066 179.607c-16.985 0-32.789-9.855-40.264-25.107l-52.617-107.376c11.384-5.365 20.518-14.734 25.583-26.282 12.708 5.616 26.475 8.542 40.703 8.542 27.875 0 53.146-11.358 71.432-29.687v135.072c0 24.724-20.113 44.838-44.837 44.838z"/></g></svg>